<svg width="19" height="17" viewBox="0 0 19 17" fill="none" xmlns="http://www.w3.org/2000/svg">
<path d="M17.86 13.466C18.5521 13.1592 19 12.648 19 12.0771L18.9864 2.70417C18.9864 1.76688 17.7786 1 16.2857 1L2.71429 1C1.22143 1 0.0135725 1.76688 0.0135725 2.70417L7.15256e-07 12.0771C7.15256e-07 12.648 0.447858 13.1592 1.14 13.466L8.71286 16.8402C9.18786 17.0533 9.81214 17.0533 10.2871 16.8402L17.86 13.466Z" fill="#AABCCE"/>
<path d="M11.67 3.86L9.85 11H8.13L7.16 7.25C7.14 7.17667 7.11333 7.06667 7.08 6.92C7.05333 6.77333 7.02 6.61333 6.98 6.44C6.94667 6.26667 6.91667 6.10333 6.89 5.95C6.86333 5.79 6.84333 5.66667 6.83 5.58C6.82333 5.66667 6.80333 5.79 6.77 5.95C6.74333 6.10333 6.71333 6.26667 6.68 6.44C6.64667 6.60667 6.61333 6.76667 6.58 6.92C6.54667 7.06667 6.52 7.18 6.5 7.26L5.54 11H3.82L2 3.86H3.49L4.4 7.76C4.42667 7.87333 4.45667 8.01333 4.49 8.18C4.52333 8.34 4.55667 8.51 4.59 8.69C4.62333 8.86333 4.65333 9.03333 4.68 9.2C4.71333 9.36667 4.73667 9.51 4.75 9.63C4.76333 9.50333 4.78333 9.36 4.81 9.2C4.83667 9.03333 4.86667 8.86667 4.9 8.7C4.93333 8.52667 4.96333 8.36667 4.99 8.22C5.02333 8.06667 5.05333 7.94667 5.08 7.86L6.12 3.86H7.55L8.59 7.86C8.61 7.94667 8.63667 8.06667 8.67 8.22C8.70333 8.36667 8.73667 8.52667 8.77 8.7C8.80333 8.87333 8.83333 9.04333 8.86 9.21C8.88667 9.37 8.90667 9.51 8.92 9.63C8.94 9.46333 8.97 9.26667 9.01 9.04C9.05 8.80667 9.09333 8.57333 9.14 8.34C9.19333 8.10667 9.23667 7.91333 9.27 7.76L10.18 3.86H11.67ZM12.088 11V10.16C14.108 8.35 15.288 6.96 15.288 5.82C15.288 5.08 14.898 4.62 14.188 4.62C13.638 4.62 13.208 4.97 12.828 5.39L12.018 4.59C12.698 3.86 13.368 3.47 14.378 3.47C15.768 3.47 16.708 4.36 16.708 5.74C16.708 7.09 15.588 8.53 14.238 9.85C14.608 9.81 15.098 9.76 15.448 9.76H17.048V11H12.088Z" fill="black"/>
<path fill-rule="evenodd" clip-rule="evenodd" d="M0 12H19L18.9864 2.70416C18.9864 1.76688 17.7786 1 16.2857 1H2.71428C1.22144 1 0.0135651 1.76688 0.0135651 2.70416L0 12ZM11.67 3.86L9.85001 11H8.13L7.16 7.25C7.14 7.17667 7.11333 7.06667 7.08 6.92C7.05333 6.77333 7.02 6.61333 6.98 6.44C6.96648 6.36971 6.95351 6.30106 6.94109 6.23405C6.92288 6.13583 6.90585 6.04115 6.89 5.95C6.86333 5.78999 6.84334 5.66667 6.83 5.58C6.82333 5.66667 6.80333 5.78999 6.77 5.95C6.74333 6.10333 6.71333 6.26666 6.67999 6.44C6.6638 6.52095 6.64761 6.60033 6.63142 6.67813C6.61429 6.76051 6.59714 6.84114 6.58 6.92C6.54666 7.06667 6.52 7.17999 6.5 7.25999L5.53999 11H3.82001L2 3.86H3.49001L4.39999 7.75999C4.41435 7.82101 4.42967 7.88976 4.44597 7.96623C4.45993 8.0318 4.47461 8.10306 4.49001 8.17999C4.52333 8.34 4.55667 8.50999 4.59 8.69C4.60707 8.77878 4.62328 8.86668 4.6386 8.95372C4.6532 9.03661 4.66699 9.1187 4.67999 9.2C4.71333 9.36667 4.73666 9.50999 4.75 9.63C4.76334 9.50333 4.78334 9.36 4.81 9.2C4.83667 9.03334 4.86667 8.86667 4.89999 8.7C4.93333 8.52667 4.96333 8.36667 4.99001 8.22C5.02333 8.06667 5.05333 7.94667 5.08 7.86L6.12 3.86H7.55L8.59 7.86C8.61 7.94667 8.63667 8.06667 8.67 8.22C8.70334 8.36667 8.73666 8.52667 8.77 8.7C8.80333 8.87334 8.83333 9.04333 8.86 9.21001C8.88667 9.37 8.90666 9.50999 8.92 9.63C8.94 9.46333 8.97 9.26666 9.00999 9.03999C9.05 8.80667 9.09334 8.57333 9.14 8.34C9.16519 8.22977 9.18816 8.12846 9.20889 8.03609C9.23204 7.93292 9.25241 7.8409 9.27 7.75999L10.18 3.86H11.67ZM12.088 11V10.16C14.108 8.35001 15.288 6.96001 15.288 5.82001C15.288 5.08 14.898 4.62 14.188 4.62C13.638 4.62 13.208 4.97 12.828 5.39L12.018 4.59C12.698 3.86 13.368 3.47 14.378 3.47C15.768 3.47 16.708 4.36 16.708 5.74001C16.708 7.09 15.588 8.53 14.238 9.85001C14.608 9.81 15.098 9.75999 15.448 9.75999H17.048V11H12.088Z" fill="#E9ECEF"/>
</svg>

