<svg width="19" height="16" viewBox="0 0 19 16" fill="none" xmlns="http://www.w3.org/2000/svg">
<path d="M17.86 12.466C18.5521 12.1592 19 11.648 19 11.0771L18.9864 1.70417C18.9864 0.766875 17.7786 0 16.2857 0L2.71429 0C1.22143 0 0.0135725 0.766875 0.0135725 1.70417L7.15256e-07 11.0771C7.15256e-07 11.648 0.447858 12.1592 1.14 12.466L8.71286 15.8402C9.18786 16.0533 9.81214 16.0533 10.2871 15.8402L17.86 12.466Z" fill="#C47E33"/>
<path d="M11.67 2.86L9.85 10H8.13L7.16 6.25C7.14 6.17667 7.11333 6.06667 7.08 5.92C7.05333 5.77333 7.02 5.61333 6.98 5.44C6.94667 5.26667 6.91667 5.10333 6.89 4.95C6.86333 4.79 6.84333 4.66667 6.83 4.58C6.82333 4.66667 6.80333 4.79 6.77 4.95C6.74333 5.10333 6.71333 5.26667 6.68 5.44C6.64667 5.60667 6.61333 5.76667 6.58 5.92C6.54667 6.06667 6.52 6.18 6.5 6.26L5.54 10H3.82L2 2.86H3.49L4.4 6.76C4.42667 6.87333 4.45667 7.01333 4.49 7.18C4.52333 7.34 4.55667 7.51 4.59 7.69C4.62333 7.86333 4.65333 8.03333 4.68 8.2C4.71333 8.36667 4.73667 8.51 4.75 8.63C4.76333 8.50333 4.78333 8.36 4.81 8.2C4.83667 8.03333 4.86667 7.86667 4.9 7.7C4.93333 7.52667 4.96333 7.36667 4.99 7.22C5.02333 7.06667 5.05333 6.94667 5.08 6.86L6.12 2.86H7.55L8.59 6.86C8.61 6.94667 8.63667 7.06667 8.67 7.22C8.70333 7.36667 8.73667 7.52667 8.77 7.7C8.80333 7.87333 8.83333 8.04333 8.86 8.21C8.88667 8.37 8.90667 8.51 8.92 8.63C8.94 8.46333 8.97 8.26667 9.01 8.04C9.05 7.80667 9.09333 7.57333 9.14 7.34C9.19333 7.10667 9.23667 6.91333 9.27 6.76L10.18 2.86H11.67ZM15.798 10H14.288V5.87C14.288 5.75667 14.288 5.61667 14.288 5.45C14.2946 5.28333 14.3013 5.11 14.308 4.93C14.3146 4.75 14.3213 4.59 14.328 4.45C14.2946 4.49 14.2213 4.56333 14.108 4.67C14.0013 4.77 13.9013 4.86 13.808 4.94L12.988 5.6L12.258 4.69L14.558 2.86H15.798V10Z" fill="black"/>
<path fill-rule="evenodd" clip-rule="evenodd" d="M18.9999 11L18.9864 1.70417C18.9864 0.766875 17.7786 0 16.2857 0L2.71429 0C1.22143 0 0.0135775 0.766875 0.0135775 1.70417L0.000117302 11L18.9999 11ZM11.67 2.86L9.85001 10H8.13L7.16 6.25C7.14001 6.17667 7.11334 6.06667 7.08 5.92C7.05334 5.77333 7.02001 5.61333 6.98001 5.44C6.94667 5.26667 6.91667 5.10333 6.89001 4.95C6.86334 4.79 6.84334 4.66667 6.83 4.58C6.82334 4.66667 6.80334 4.79 6.77001 4.95C6.74334 5.10333 6.71334 5.26667 6.68001 5.44C6.64667 5.60667 6.61334 5.76667 6.58 5.92C6.54667 6.06667 6.52001 6.18 6.5 6.26L5.54 10L3.82 10L2 2.86H3.49L4.4 6.76C4.42667 6.87333 4.45667 7.01333 4.49 7.18C4.52334 7.34 4.55667 7.51 4.59 7.69C4.62334 7.86333 4.65334 8.03333 4.68001 8.2C4.71334 8.36667 4.73667 8.51 4.75 8.63C4.76334 8.50333 4.78334 8.36 4.81 8.2C4.83667 8.03333 4.86667 7.86667 4.9 7.7C4.93334 7.52667 4.96334 7.36667 4.99 7.22C5.02334 7.06667 5.05334 6.94667 5.08 6.86L6.12 2.86H7.55L8.59 6.86C8.61001 6.94667 8.63667 7.06667 8.67 7.22C8.70334 7.36667 8.73667 7.52667 8.77001 7.7C8.80334 7.87333 8.83334 8.04333 8.86001 8.21C8.88667 8.37 8.90667 8.51 8.92 8.63C8.94001 8.46333 8.97001 8.26667 9.01 8.04C9.05 7.80667 9.09334 7.57333 9.14001 7.34C9.19334 7.10667 9.23667 6.91333 9.27001 6.76L10.18 2.86H11.67ZM15.798 10H14.288V5.87V5.45C14.2946 5.28333 14.3013 5.11 14.308 4.93C14.3146 4.75 14.3213 4.59 14.328 4.45C14.2946 4.49 14.2213 4.56333 14.108 4.67C14.0013 4.77 13.9013 4.86 13.808 4.94L12.988 5.6L12.258 4.69L14.558 2.86L15.798 2.86V10Z" fill="#E9C9A7"/>
</svg>

