<svg
  width="24"
  height="24"
  viewBox="0 0 24 24"
  fill="none"
  xmlns="http://www.w3.org/2000/svg"
>
  <g clip-path="url(#clip0_347_484)">
    <path
      d="M12 0C5.37231 0 0 5.37231 0 12C0 18.6277 5.37231 24 12 24C18.6277 24 24 18.6277 24 12C24 5.37231 18.6277 0 12 0ZM12.9 19.1954H10.5185V16.8877H12.9V19.1954ZM14.34 11.9862C13.1862 12.7062 12.6323 13.5738 12.6831 14.58V15.2308H10.8092V14.4369C10.7631 13.0892 11.3862 11.9631 12.6831 11.0492C14.0769 10.0892 14.7277 9.15231 14.6308 8.23846C14.4877 6.89077 13.6938 6.17077 12.2492 6.07385C10.5646 6.02769 9.50769 6.98769 9.07385 8.95846L6.98308 8.45538C7.60615 5.52462 9.48462 4.10308 12.6092 4.2C15.2538 4.34308 16.6938 5.61692 16.9385 8.02154C17.0354 9.51231 16.1677 10.8323 14.3446 11.9862H14.34Z"
      fill="white"
    />
  </g>
  <defs>
    <clipPath id="clip0_347_484">
      <rect width="24" height="24" fill="white" />
    </clipPath>
  </defs>
</svg>
